<?xml version="1.0" encoding="UTF-8" standalone="no"?>
<!DOCTYPE svg PUBLIC "-//W3C//DTD SVG 1.1//EN"
 "http://www.w3.org/Graphics/SVG/1.1/DTD/svg11.dtd">
<!-- Generated by graphviz version 2.40.1 (20161225.0304)
 -->
<!-- Title: dependencies Pages: 1 -->
<svg width="720pt" height="284pt"
 viewBox="0.00 0.00 720.00 284.00" xmlns="http://www.w3.org/2000/svg" xmlns:xlink="http://www.w3.org/1999/xlink">
<g id="graph0" class="graph" transform="scale(1 1) rotate(0) translate(4 280)">
<title>dependencies</title>
<polygon fill="#ffffff" stroke="transparent" points="-4,4 -4,-280 716,-280 716,4 -4,4"/>
<text text-anchor="start" x="335.0091" y="-42.4" font-family="sans-serif" font-weight="bold" font-size="14.00" fill="#000000">Legend</text>
<polygon fill="#ffffb3" stroke="transparent" points="122,-10 122,-30 142,-30 142,-10 122,-10"/>
<text text-anchor="start" x="145.629" y="-15.4" font-family="sans-serif" font-size="14.00" fill="#000000"> &#160;Declarations</text>
<polygon fill="#8dd3c7" stroke="transparent" points="235,-10 235,-30 255,-30 255,-10 235,-10"/>
<text text-anchor="start" x="258.7251" y="-15.4" font-family="sans-serif" font-size="14.00" fill="#000000"> &#160;Module</text>
<polygon fill="#80b1d3" stroke="transparent" points="321,-10 321,-30 341,-30 341,-10 321,-10"/>
<text text-anchor="start" x="344.7812" y="-15.4" font-family="sans-serif" font-size="14.00" fill="#000000"> &#160;Bootstrap</text>
<polygon fill="#fdb462" stroke="transparent" points="418,-10 418,-30 438,-30 438,-10 418,-10"/>
<text text-anchor="start" x="441.6732" y="-15.4" font-family="sans-serif" font-size="14.00" fill="#000000"> &#160;Providers</text>
<polygon fill="#fb8072" stroke="transparent" points="514,-10 514,-30 534,-30 534,-10 514,-10"/>
<text text-anchor="start" x="537.7258" y="-15.4" font-family="sans-serif" font-size="14.00" fill="#000000"> &#160;Exports</text>
<g id="clust1" class="cluster">
<title>cluster_AppModule</title>
<polygon fill="none" stroke="#000000" stroke-dasharray="1,5" points="8,-70 8,-268 704,-268 704,-70 8,-70"/>
</g>
<g id="clust2" class="cluster">
<title>cluster_AppModule_declarations</title>
<polygon fill="none" stroke="#000000" points="168,-78 168,-130 696,-130 696,-78 168,-78"/>
</g>
<g id="clust7" class="cluster">
<title>cluster_AppModule_imports</title>
<polygon fill="none" stroke="#000000" points="16,-78 16,-130 160,-130 160,-78 16,-78"/>
</g>
<g id="clust9" class="cluster">
<title>cluster_AppModule_bootstrap</title>
<polygon fill="none" stroke="#000000" points="312,-208 312,-260 436,-260 436,-208 312,-208"/>
</g>
<!-- AppComponent -->
<g id="node1" class="node">
<title>AppComponent</title>
<polygon fill="#ffffb3" stroke="#000000" points="687.9399,-122 582.0601,-122 582.0601,-86 687.9399,-86 687.9399,-122"/>
<text text-anchor="middle" x="635" y="-99.8" font-family="Times,serif" font-size="14.00" fill="#000000">AppComponent</text>
</g>
<!-- AppModule -->
<g id="node5" class="node">
<title>AppModule</title>
<polygon fill="#8dd3c7" stroke="#000000" points="415.6571,-187 412.6571,-191 391.6571,-191 388.6571,-187 332.3429,-187 332.3429,-151 415.6571,-151 415.6571,-187"/>
<text text-anchor="middle" x="374" y="-164.8" font-family="Times,serif" font-size="14.00" fill="#000000">AppModule</text>
</g>
<!-- AppComponent&#45;&gt;AppModule -->
<g id="edge1" class="edge">
<title>AppComponent&#45;&gt;AppModule</title>
<path fill="none" stroke="#000000" d="M635,-122.2843C635,-143.3211 635,-175 635,-175 635,-175 425.9342,-175 425.9342,-175"/>
<polygon fill="#000000" stroke="#000000" points="425.9342,-171.5001 415.9342,-175 425.9341,-178.5001 425.9342,-171.5001"/>
</g>
<!-- GameComponent -->
<g id="node2" class="node">
<title>GameComponent</title>
<polygon fill="#ffffb3" stroke="#000000" points="564.2591,-122 449.7409,-122 449.7409,-86 564.2591,-86 564.2591,-122"/>
<text text-anchor="middle" x="507" y="-99.8" font-family="Times,serif" font-size="14.00" fill="#000000">GameComponent</text>
</g>
<!-- GameComponent&#45;&gt;AppModule -->
<g id="edge2" class="edge">
<title>GameComponent&#45;&gt;AppModule</title>
<path fill="none" stroke="#000000" d="M507,-122.0225C507,-139.3734 507,-163 507,-163 507,-163 425.7171,-163 425.7171,-163"/>
<polygon fill="#000000" stroke="#000000" points="425.7172,-159.5001 415.7171,-163 425.7171,-166.5001 425.7172,-159.5001"/>
</g>
<!-- HomeComponent -->
<g id="node3" class="node">
<title>HomeComponent</title>
<polygon fill="#ffffb3" stroke="#000000" points="431.5451,-122 316.4549,-122 316.4549,-86 431.5451,-86 431.5451,-122"/>
<text text-anchor="middle" x="374" y="-99.8" font-family="Times,serif" font-size="14.00" fill="#000000">HomeComponent</text>
</g>
<!-- HomeComponent&#45;&gt;AppModule -->
<g id="edge3" class="edge">
<title>HomeComponent&#45;&gt;AppModule</title>
<path fill="none" stroke="#000000" d="M374,-122.1061C374,-122.1061 374,-140.991 374,-140.991"/>
<polygon fill="#000000" stroke="#000000" points="370.5001,-140.9909 374,-150.991 377.5001,-140.991 370.5001,-140.9909"/>
</g>
<!-- ResultsComponent -->
<g id="node4" class="node">
<title>ResultsComponent</title>
<polygon fill="#ffffb3" stroke="#000000" points="298.0548,-122 175.9452,-122 175.9452,-86 298.0548,-86 298.0548,-122"/>
<text text-anchor="middle" x="237" y="-99.8" font-family="Times,serif" font-size="14.00" fill="#000000">ResultsComponent</text>
</g>
<!-- ResultsComponent&#45;&gt;AppModule -->
<g id="edge4" class="edge">
<title>ResultsComponent&#45;&gt;AppModule</title>
<path fill="none" stroke="#000000" d="M237,-122.0225C237,-139.3734 237,-163 237,-163 237,-163 322.1511,-163 322.1511,-163"/>
<polygon fill="#000000" stroke="#000000" points="322.1511,-166.5001 332.1511,-163 322.151,-159.5001 322.1511,-166.5001"/>
</g>
<!-- AppComponent  -->
<g id="node7" class="node">
<title>AppComponent </title>
<polygon fill="#80b1d3" stroke="#000000" points="428.439,-252 319.561,-252 319.561,-216 428.439,-216 428.439,-252"/>
<text text-anchor="middle" x="374" y="-229.8" font-family="Times,serif" font-size="14.00" fill="#000000">AppComponent </text>
</g>
<!-- AppModule&#45;&gt;AppComponent  -->
<g id="edge6" class="edge">
<title>AppModule&#45;&gt;AppComponent </title>
<path fill="none" stroke="#000000" stroke-dasharray="1,5" d="M374,-187.1061C374,-187.1061 374,-205.991 374,-205.991"/>
<polygon fill="#000000" stroke="#000000" points="370.5001,-205.9909 374,-215.991 377.5001,-205.991 370.5001,-205.9909"/>
</g>
<!-- AppRoutingModule -->
<g id="node6" class="node">
<title>AppRoutingModule</title>
<polygon fill="#8dd3c7" stroke="#000000" points="152.2744,-122 149.2744,-126 128.2744,-126 125.2744,-122 23.7256,-122 23.7256,-86 152.2744,-86 152.2744,-122"/>
<text text-anchor="middle" x="88" y="-99.8" font-family="Times,serif" font-size="14.00" fill="#000000">AppRoutingModule</text>
</g>
<!-- AppRoutingModule&#45;&gt;AppModule -->
<g id="edge5" class="edge">
<title>AppRoutingModule&#45;&gt;AppModule</title>
<path fill="none" stroke="#000000" d="M88,-122.2843C88,-143.3211 88,-175 88,-175 88,-175 322.1069,-175 322.1069,-175"/>
<polygon fill="#000000" stroke="#000000" points="322.1069,-178.5001 332.1069,-175 322.1068,-171.5001 322.1069,-178.5001"/>
</g>
</g>
</svg>
